# xmcd CD database file
#
# Track frame offsets:
#	150
#	18652
#	38049
#	53293
#	71405
#	97289
#	115458
#	134558
#	154892
#	173048
#	195003
#	214115
#
# Disc length: 3408 seconds
#
# Revision: 0
# Processed by: cddbd v1.5.1PL2 Copyright (c) Steve Scherf et al.
# Submitted via: CDex 1.51
#
DISCID=a20d4e0c
DTITLE=桜庭 和 - ココロカレンダー
DYEAR=2006
DGENRE=J-POP
TTITLE0=Spring breeze
TTITLE1=touch
TTITLE2=相合傘
TTITLE3=High!!
TTITLE4=サイドシートとキーホルダー
TTITLE5=恋は徒然
TTITLE6=風
TTITLE7=励ましてくれた人への手紙
TTITLE8=Dancing Snow
TTITLE9=mean
TTITLE10=雪の涙
TTITLE11=春
EXTD=YEAR: 2006
EXTT0=
EXTT1=
EXTT2=
EXTT3=
EXTT4=
EXTT5=
EXTT6=
EXTT7=
EXTT8=
EXTT9=
EXTT10=
EXTT11=
PLAYORDER=
